<svg width="42" height="42" viewBox="0 0 42 42" fill="none" xmlns="http://www.w3.org/2000/svg">
<path d="M22.8375 28.4379H19.5475C17.22 28.4379 15.3125 26.4779 15.3125 24.0629C15.3125 23.3454 15.9075 22.7504 16.625 22.7504C17.3425 22.7504 17.9375 23.3454 17.9375 24.0629C17.9375 25.0254 18.655 25.8129 19.5475 25.8129H22.8375C23.52 25.8129 24.0625 25.2004 24.0625 24.4479C24.0625 23.5029 23.8 23.3629 23.205 23.1529L17.9375 21.3154C16.8175 20.9304 15.3125 20.1079 15.3125 17.5354C15.3125 15.3479 17.045 13.5454 19.1625 13.5454H22.4525C24.78 13.5454 26.6875 15.5054 26.6875 17.9204C26.6875 18.6379 26.0925 19.2329 25.375 19.2329C24.6575 19.2329 24.0625 18.6379 24.0625 17.9204C24.0625 16.9579 23.345 16.1704 22.4525 16.1704H19.1625C18.48 16.1704 17.9375 16.7829 17.9375 17.5354C17.9375 18.4804 18.2 18.6204 18.795 18.8304L24.0625 20.6679C25.1825 21.0529 26.6875 21.8754 26.6875 24.4479C26.6875 26.6529 24.955 28.4379 22.8375 28.4379Z" fill="#00AC4F"/>
<path d="M21 30.1875C20.2825 30.1875 19.6875 29.5925 19.6875 28.875V13.125C19.6875 12.4075 20.2825 11.8125 21 11.8125C21.7175 11.8125 22.3125 12.4075 22.3125 13.125V28.875C22.3125 29.5925 21.7175 30.1875 21 30.1875Z" fill="#00AC4F"/>
<path d="M21 39.8125C10.6225 39.8125 2.1875 31.3775 2.1875 21C2.1875 10.6225 10.6225 2.1875 21 2.1875C21.7175 2.1875 22.3125 2.7825 22.3125 3.5C22.3125 4.2175 21.7175 4.8125 21 4.8125C12.075 4.8125 4.8125 12.075 4.8125 21C4.8125 29.925 12.075 37.1875 21 37.1875C29.925 37.1875 37.1875 29.925 37.1875 21C37.1875 20.2825 37.7825 19.6875 38.5 19.6875C39.2175 19.6875 39.8125 20.2825 39.8125 21C39.8125 31.3775 31.3775 39.8125 21 39.8125Z" fill="#00AC4F"/>
<path d="M36.75 13.5625H29.75C29.0325 13.5625 28.4375 12.9675 28.4375 12.25V5.25C28.4375 4.5325 29.0325 3.9375 29.75 3.9375C30.4675 3.9375 31.0625 4.5325 31.0625 5.25V10.9375H36.75C37.4675 10.9375 38.0625 11.5325 38.0625 12.25C38.0625 12.9675 37.4675 13.5625 36.75 13.5625Z" fill="#00AC4F"/>
<path d="M29.749 13.5633C29.4165 13.5633 29.084 13.4408 28.8215 13.1783C28.314 12.6707 28.314 11.8308 28.8215 11.3232L37.5715 2.57325C38.079 2.06575 38.919 2.06575 39.4265 2.57325C39.934 3.08075 39.934 3.92075 39.4265 4.42825L30.6765 13.1783C30.414 13.4408 30.0815 13.5633 29.749 13.5633Z" fill="#00AC4F"/>
</svg>
